# xmcd CD database file
#
# Track frame offsets:
#	150
#	77255
#	141364
#	217017
#
# Disc length: 3442 seconds
#
# Revision: 1
# Processed by: cddbd v1.5.2PL0 Copyright (c) Steve Scherf et al.
# Submitted via: CDex 1.51
#
DISCID=310d7004
DTITLE=Medwyn Goodall - Earth Love [CD1)
DYEAR=2001
DGENRE=New Age
TTITLE0=Earth Love I
TTITLE1=Earth Love II
TTITLE2=Earth Love III
TTITLE3=Earth Love IV
EXTD=YEAR: 2001
EXTT0=
EXTT1=
EXTT2=
EXTT3=
PLAYORDER=
